<svg width="44" height="44" viewBox="0 0 44 44" fill="none" xmlns="http://www.w3.org/2000/svg">
<circle cx="22" cy="22" r="21" fill="#2EC1EF"/>
<circle cx="22" cy="22" r="21" stroke="white" stroke-width="2"/>
<circle cx="22" cy="22" r="21" stroke="white" stroke-width="2"/>
<path d="M21.6571 21.7813C23.8808 21.7813 25.6836 19.5917 25.6836 16.8907C25.6836 14.1896 25.0917 12 21.6571 12C18.2226 12 17.6306 14.1896 17.6306 16.8907C17.6306 19.5917 19.4334 21.7813 21.6571 21.7813Z" fill="white"/>
<path d="M14.0737 29.2641C14.0725 29.0695 14.0713 29.2093 14.0737 29.2641V29.2641Z" fill="black"/>
<path d="M29.283 29.3774C29.2868 29.3323 29.2843 29.0646 29.283 29.3774V29.3774Z" fill="black"/>
<path d="M29.2534 29.0513C29.1789 24.346 28.5643 23.0053 23.8619 22.1566C23.8619 22.1566 23.1999 23.0001 21.6571 23.0001C20.1142 23.0001 19.4522 22.1566 19.4522 22.1566C14.801 22.996 14.1491 24.3169 14.0634 28.8984C14.0564 29.2725 14.0531 29.2922 14.0519 29.2487C14.0522 29.3301 14.0525 29.4806 14.0525 29.7431C14.0525 29.7431 15.1721 32 21.6571 32C28.142 32 29.2617 29.7431 29.2617 29.7431C29.2617 29.5745 29.2618 29.4572 29.2619 29.3774C29.2607 29.4043 29.2582 29.3522 29.2534 29.0513Z" fill="white"/>
</svg>
